# xmcd CD database file
#
# Track frame offsets:
#	150
#	22024
#	42312
#	61797
#	84160
#	104031
#	119360
#	138564
#	155429
#	175235
#	197993
#	220613
#	241617
#
# Disc length: 3460 seconds
#
# Revision: 1
# Processed by: cddbd v1.5.2PL0 Copyright (c) Steve Scherf et al.
# Submitted via: CDex 1.51
#
DISCID=ae0d820d
DTITLE=Sam Levine - Smooth Praise
DYEAR=2009
DGENRE=Jazz
TTITLE0=Friend of God
TTITLE1=I Could Sing of Your Love Forever
TTITLE2=Open the Eyes of My Heart
TTITLE3=God of Wonders
TTITLE4=Blessed Be Your Name
TTITLE5=Lord I Lift Your Name on High
TTITLE6=Draw Me Close
TTITLE7=Days of Elijah, The
TTITLE8=Everlasting God
TTITLE9=Trading My Sorrows
TTITLE10=Shout to the Lord
TTITLE11=Holy is the Lord
TTITLE12=Beautiful One
EXTD=YEAR: 2009
EXTT0=
EXTT1=
EXTT2=
EXTT3=
EXTT4=
EXTT5=
EXTT6=
EXTT7=
EXTT8=
EXTT9=
EXTT10=
EXTT11=
EXTT12=
PLAYORDER=
